<svg width="460" height="370" viewBox="0 0 460 370" fill="none" xmlns="http://www.w3.org/2000/svg">
<path fill-rule="evenodd" clip-rule="evenodd" d="M347.374 235.95C361.664 216.033 378.311 197.651 400.359 184.147C444.594 157.054 460.655 132.219 458.866 110.402C457.072 88.5171 437.289 69.0101 408.115 52.6852C349.877 20.097 255.656 1 200.441 1C90.2156 1 1 83.4536 1 185C1 286.546 90.2156 369 200.441 369C227.893 369 248.572 360.864 265.538 347.843C282.534 334.799 295.844 316.824 308.493 297.074C312.868 290.243 317.169 283.19 321.516 276.062C329.704 262.633 338.057 248.936 347.374 235.95ZM322.4 276.534C343.101 242.585 364.703 207.159 400.881 185C578.027 76.5 311.141 0 200.441 0C89.7403 0 0 82.8273 0 185C0 287.173 89.7403 370 200.441 370C265.406 370 292.994 324.757 322.4 276.534Z" fill="#C0C0C0"/>
</svg>
