<svg width="30" height="31" viewBox="0 0 30 31" fill="none" xmlns="http://www.w3.org/2000/svg">
<path d="M10.3418 2.58325H20.5351C24.4182 2.58325 27.5733 5.94159 27.5733 10.0749V20.9249C27.5733 22.9118 26.8317 24.8174 25.5118 26.2223C24.1919 27.6273 22.4017 28.4166 20.5351 28.4166H10.3418C6.45865 28.4166 3.30359 25.0583 3.30359 20.9249V10.0749C3.30359 8.08801 4.04511 6.18247 5.36503 4.77751C6.68495 3.37255 8.47515 2.58325 10.3418 2.58325ZM10.0991 5.16659C8.94049 5.16659 7.82933 5.65649 7.01007 6.52854C6.19081 7.40058 5.73056 8.58333 5.73056 9.81659V21.1833C5.73056 23.7537 7.68427 25.8333 10.0991 25.8333H20.7778C21.9364 25.8333 23.0475 25.3433 23.8668 24.4713C24.686 23.5993 25.1463 22.4165 25.1463 21.1833V9.81659C25.1463 7.24617 23.1926 5.16659 20.7778 5.16659H10.0991ZM21.8092 7.10409C22.2115 7.10409 22.5973 7.27419 22.8818 7.57699C23.1663 7.87978 23.3261 8.29045 23.3261 8.71867C23.3261 9.14688 23.1663 9.55756 22.8818 9.86035C22.5973 10.1631 22.2115 10.3333 21.8092 10.3333C21.4069 10.3333 21.0211 10.1631 20.7366 9.86035C20.4522 9.55756 20.2924 9.14688 20.2924 8.71867C20.2924 8.29045 20.4522 7.87978 20.7366 7.57699C21.0211 7.27419 21.4069 7.10409 21.8092 7.10409ZM15.4384 9.04159C17.0476 9.04159 18.5909 9.72202 19.7287 10.9332C20.8666 12.1444 21.5058 13.7871 21.5058 15.4999C21.5058 17.2128 20.8666 18.8555 19.7287 20.0667C18.5909 21.2778 17.0476 21.9583 15.4384 21.9583C13.8292 21.9583 12.286 21.2778 11.1481 20.0667C10.0103 18.8555 9.37101 17.2128 9.37101 15.4999C9.37101 13.7871 10.0103 12.1444 11.1481 10.9332C12.286 9.72202 13.8292 9.04159 15.4384 9.04159ZM15.4384 11.6249C14.4729 11.6249 13.547 12.0332 12.8642 12.7599C12.1815 13.4866 11.798 14.4722 11.798 15.4999C11.798 16.5276 12.1815 17.5133 12.8642 18.24C13.547 18.9667 14.4729 19.3749 15.4384 19.3749C16.4039 19.3749 17.3299 18.9667 18.0126 18.24C18.6953 17.5133 19.0789 16.5276 19.0789 15.4999C19.0789 14.4722 18.6953 13.4866 18.0126 12.7599C17.3299 12.0332 16.4039 11.6249 15.4384 11.6249Z" fill="#CB922F"/>
</svg>
