<svg width="31" height="31" viewBox="0 0 31 31" fill="none" xmlns="http://www.w3.org/2000/svg">
<path d="M15.4871 2.58334C8.35709 2.58334 2.58334 8.37001 2.58334 15.5C2.58334 22.63 8.35709 28.4167 15.4871 28.4167C22.63 28.4167 28.4167 22.63 28.4167 15.5C28.4167 8.37001 22.63 2.58334 15.4871 2.58334ZM15.5 25.8333C9.79084 25.8333 5.16668 21.2092 5.16668 15.5C5.16668 9.79084 9.79084 5.16668 15.5 5.16668C21.2092 5.16668 25.8333 9.79084 25.8333 15.5C25.8333 21.2092 21.2092 25.8333 15.5 25.8333Z" fill="#CB922F"/>
<path d="M16.1458 9.04166H14.2083V16.7917L20.9896 20.8604L21.9583 19.2717L16.1458 15.8229V9.04166Z" fill="#CB922F"/>
</svg>
